<?xml version="1.0" encoding="UTF-8" standalone="no"?>
<!DOCTYPE svg PUBLIC "-//W3C//DTD SVG 1.1//EN" "http://www.w3.org/Graphics/SVG/1.1/DTD/svg11.dtd">
<svg xmlns="http://www.w3.org/2000/svg" xmlns:xl="http://www.w3.org/1999/xlink" version="1.1" viewBox="60 153 101 64" width="101pt" height="64pt" xmlns:dc="http://purl.org/dc/elements/1.1/">
  <metadata> Produced by OmniGraffle 7.0.2 
    <dc:date>2016-10-13 00:48:59 +0000</dc:date>
  </metadata>
  <defs/>
  <g stroke="none" stroke-opacity="1" stroke-dasharray="none" fill="none" fill-opacity="1">
    <title>Canvas 1</title>
    <g>
      <title>Layer 1</title>
      <path d="M 62 214.159 L 62 209.903 L 66.82 209.903 C 67.924 209.903 68.82 209.007 68.82 207.903 L 68.82 176.81 L 77.021 176.81 L 77.021 184.257 C 77.021 184.785 77.229 185.291 77.602 185.666 L 89.804 197.959 C 90.187 198.345 90.701 198.55 91.224 198.55 C 91.48 198.55 91.739 198.501 91.985 198.4 C 92.735 198.09 93.223 197.361 93.223 196.55 L 93.223 190.294 L 101.371 198.003 C 101.75 198.361 102.244 198.55 102.746 198.55 C 103.013 198.55 103.282 198.496 103.537 198.387 C 104.27 198.072 104.746 197.349 104.746 196.55 L 104.746 190.957 L 113.626 199.272 L 113.626 207.902 C 113.626 209.006 114.522 209.902 115.626 209.902 L 125.622 209.902 C 126.426 209.902 127.13 209.424 127.445 208.724 C 127.459 208.733 127.472 208.743 127.486 208.752 C 127.823 208.978 128.213 209.092 128.602 209.092 C 128.879 209.092 129.157 209.034 129.416 208.918 C 129.77 209.517 130.418 209.901 131.139 209.901 L 141.66 209.901 C 142.381 209.901 143.029 209.516 143.383 208.919 C 143.642 209.033 143.918 209.091 144.195 209.091 C 144.585 209.091 144.974 208.977 145.31 208.751 C 145.324 208.741 145.337 208.732 145.35 208.723 C 145.666 209.424 146.371 209.902 147.174 209.902 L 152.565 209.902 L 152.565 214.159 Z M 131.139 178.714 C 131.057 178.507 130.94 178.313 130.791 178.14 C 130.901 178.064 131.004 177.978 131.098 177.881 C 131.21 177.997 131.335 178.099 131.471 178.185 L 131.426 178.24 C 131.306 178.387 131.21 178.547 131.139 178.714 Z M 141.66 178.71 C 141.587 178.54 141.489 178.378 141.366 178.229 C 141.353 178.214 141.341 178.199 141.328 178.183 C 141.462 178.099 141.588 177.997 141.699 177.881 C 141.793 177.978 141.895 178.065 142.007 178.141 C 141.858 178.311 141.742 178.505 141.66 178.71 Z M 150.652 178.032 C 150.379 177.76 150.034 177.574 149.661 177.494 C 149.788 177.276 149.875 177.03 149.912 176.766 C 149.945 176.526 149.933 176.287 149.884 176.061 L 154.79 177.45 L 152.063 177.45 C 151.533 177.45 151.026 177.661 150.652 178.032 Z M 122.145 178.032 C 121.771 177.66 121.265 177.45 120.735 177.45 L 117.999 177.45 L 122.915 176.061 C 122.865 176.287 122.853 176.525 122.887 176.766 C 122.924 177.03 123.011 177.276 123.138 177.495 C 122.764 177.574 122.418 177.76 122.145 178.032 Z M 124.309 159.382 L 126.18 158.413 C 126.179 158.575 126.198 158.739 126.237 158.902 C 126.279 159.072 126.341 159.233 126.423 159.382 L 124.309 159.382 Z M 146.378 159.382 C 146.459 159.234 146.522 159.072 146.564 158.902 C 146.603 158.74 146.622 158.577 146.621 158.417 L 148.483 159.382 L 146.378 159.382 Z" fill="black"/>
      <path d="M 75.021 178.81 L 75.021 184.257 C 75.021 185.313 75.438 186.325 76.182 187.074 L 88.384 199.369 C 89.15 200.14 90.177 200.551 91.224 200.551 C 91.737 200.551 92.254 200.452 92.747 200.249 C 94.245 199.632 95.223 198.171 95.223 196.551 L 95.223 194.941 L 99.997 199.457 C 100.755 200.174 101.744 200.552 102.747 200.552 C 103.281 200.552 103.818 200.446 104.328 200.226 C 105.796 199.594 106.746 198.15 106.746 196.552 L 106.746 195.573 L 111.626 200.142 L 111.626 207.905 C 111.626 210.114 113.417 211.905 115.626 211.905 L 125.622 211.905 C 126.543 211.905 127.398 211.593 128.079 211.061 C 128.253 211.083 128.428 211.095 128.602 211.095 C 128.643 211.095 128.683 211.094 128.724 211.093 C 129.402 211.607 130.243 211.905 131.139 211.905 L 141.66 211.905 C 142.557 211.905 143.398 211.606 144.076 211.093 C 144.115 211.094 144.155 211.095 144.194 211.095 C 144.368 211.095 144.543 211.083 144.715 211.061 C 145.397 211.592 146.252 211.906 147.173 211.906 L 150.564 211.906 L 150.564 212.159 L 112.599 212.159 L 64 212.159 L 64 211.903 L 66.82 211.903 C 69.029 211.903 70.82 210.112 70.82 207.903 L 70.82 178.81 Z M 141.152 153.5 L 131.647 153.5 C 131.43 153.5 131.207 153.555 131.009 153.658 L 121.504 158.582 C 121.473 158.599 121.447 158.622 121.416 158.641 C 121.38 158.662 121.347 158.683 121.313 158.709 C 121.27 158.74 121.232 158.774 121.195 158.809 C 121.175 158.827 121.154 158.842 121.134 158.861 C 121.12 158.874 121.112 158.889 121.1 158.903 C 121.065 158.941 121.034 158.983 121.004 159.025 C 120.981 159.059 120.956 159.092 120.935 159.129 C 120.906 159.177 120.882 159.227 120.859 159.277 C 120.84 159.312 120.827 159.345 120.813 159.381 C 120.795 159.433 120.778 159.488 120.764 159.544 C 120.756 159.582 120.748 159.62 120.741 159.658 C 120.731 159.712 120.729 159.766 120.727 159.821 C 120.723 159.848 120.717 159.876 120.717 159.904 L 120.717 164.834 C 120.717 165.65 121.354 166.313 122.143 166.313 C 122.93 166.313 123.567 165.649 123.567 164.834 L 123.565 164.834 L 123.565 161.382 L 131.6 161.382 L 130.251 171.909 L 113.848 176.545 C 113.817 176.554 113.786 176.57 113.755 176.583 C 113.716 176.597 113.677 176.61 113.637 176.629 C 113.588 176.653 113.541 176.681 113.491 176.71 C 113.46 176.73 113.429 176.749 113.397 176.772 C 113.351 176.806 113.31 176.842 113.269 176.881 C 113.251 176.898 113.231 176.91 113.215 176.927 C 113.203 176.939 113.197 176.951 113.186 176.963 C 113.149 177.002 113.12 177.045 113.085 177.089 C 113.06 177.123 113.036 177.156 113.017 177.192 C 112.988 177.239 112.963 177.288 112.942 177.338 C 112.926 177.372 112.909 177.407 112.897 177.444 C 112.876 177.498 112.86 177.555 112.846 177.613 C 112.838 177.647 112.827 177.681 112.822 177.717 C 112.814 177.777 112.808 177.834 112.806 177.895 C 112.804 177.92 112.798 177.946 112.798 177.972 L 112.798 182.901 C 112.798 183.717 113.436 184.378 114.225 184.378 C 115.009 184.378 115.649 183.717 115.649 182.901 L 115.649 179.45 L 120.734 179.45 C 120.728 179.505 120.718 179.558 120.718 179.616 L 120.718 182.901 C 120.718 183.717 121.355 184.378 122.146 184.378 C 122.931 184.378 123.568 183.717 123.568 182.901 L 123.568 179.616 C 123.568 179.559 123.558 179.505 123.554 179.45 L 129.279 179.45 L 125.622 207.903 L 115.626 207.903 L 115.626 198.406 L 102.746 186.345 L 102.746 196.55 L 91.223 185.649 L 91.223 196.55 L 79.021 184.258 L 79.021 174.811 L 66.82 174.811 L 66.82 207.904 L 60 207.904 L 60 216.159 L 112.599 216.159 L 154.566 216.159 L 154.566 207.903 L 147.175 207.903 L 143.519 179.45 L 149.243 179.45 C 149.237 179.505 149.225 179.557 149.225 179.614 L 149.225 182.901 C 149.225 183.716 149.867 184.378 150.655 184.378 C 151.442 184.378 152.08 183.716 152.08 182.901 L 152.08 179.614 C 152.08 179.558 152.072 179.505 152.064 179.45 L 157.148 179.45 L 157.148 182.901 C 157.148 183.716 157.788 184.378 158.577 184.378 C 159.361 184.378 160.001 183.716 160.001 182.901 L 159.999 177.972 C 159.999 177.946 159.993 177.92 159.991 177.893 C 159.989 177.834 159.985 177.777 159.973 177.721 C 159.967 177.68 159.959 177.643 159.948 177.604 C 159.934 177.552 159.922 177.5 159.902 177.45 C 159.888 177.407 159.869 177.366 159.847 177.323 C 159.827 177.282 159.808 177.241 159.785 177.202 C 159.758 177.157 159.728 177.114 159.695 177.071 C 159.674 177.039 159.649 177.008 159.622 176.976 C 159.608 176.961 159.597 176.943 159.583 176.928 C 159.562 176.905 159.534 176.885 159.508 176.865 C 159.479 176.837 159.447 176.809 159.416 176.785 C 159.372 176.751 159.325 176.723 159.278 176.694 C 159.247 176.674 159.213 176.655 159.177 176.638 C 159.122 176.612 159.065 176.589 159.004 176.57 C 158.986 176.563 158.969 176.553 158.948 176.548 L 142.548 171.908 L 141.194 161.382 L 149.227 161.382 L 149.227 164.834 C 149.227 165.649 149.865 166.313 150.653 166.313 C 151.44 166.313 152.08 165.649 152.08 164.834 L 152.08 159.904 C 152.08 159.87 152.072 159.836 152.07 159.803 C 152.066 159.76 152.062 159.716 152.055 159.673 C 152.047 159.616 152.034 159.562 152.02 159.507 C 152.008 159.472 151.999 159.437 151.987 159.403 C 151.969 159.347 151.944 159.293 151.919 159.241 C 151.904 159.208 151.887 159.177 151.871 159.146 C 151.84 159.096 151.809 159.05 151.772 159.003 C 151.751 158.973 151.729 158.943 151.706 158.915 C 151.69 158.898 151.679 158.877 151.661 158.86 C 151.635 158.834 151.605 158.814 151.58 158.79 C 151.553 158.767 151.529 158.744 151.501 158.724 C 151.448 158.683 151.392 158.647 151.334 158.615 C 151.318 158.606 151.307 158.595 151.291 158.587 L 141.788 153.659 C 141.595 153.555 141.368 153.5 141.152 153.5 Z M 128.18 158.428 L 131.982 156.455 L 140.816 156.455 L 144.621 158.428 L 139.577 158.428 L 139.569 158.427 L 133.23 158.427 L 133.222 158.428 L 128.18 158.428 Z M 136.397 164.078 L 134.454 161.557 L 134.477 161.381 L 138.319 161.381 L 138.342 161.56 L 136.397 164.078 Z M 133.677 167.604 L 134.109 164.262 L 135.182 165.655 L 133.677 167.604 Z M 139.118 167.604 L 137.615 165.655 L 138.691 164.263 L 139.118 167.604 Z M 135.922 171.565 L 134.458 169.747 L 136.397 167.231 L 138.342 169.748 L 136.881 171.565 L 135.922 171.565 Z M 133.17 171.565 L 133.207 171.27 L 133.445 171.565 L 133.17 171.565 Z M 139.354 171.565 L 139.589 171.27 L 139.626 171.565 L 139.354 171.565 Z M 139.879 176.491 L 138.294 174.52 L 140.009 174.52 L 140.261 176.491 L 139.879 176.491 Z M 132.536 176.491 L 132.79 174.52 L 134.505 174.52 L 132.922 176.491 L 132.536 176.491 Z M 143.139 176.491 L 142.958 175.085 L 147.931 176.491 L 143.139 176.491 Z M 124.867 176.491 L 129.842 175.085 L 129.658 176.491 L 124.867 176.491 Z M 135.395 176.491 L 136.398 175.241 L 137.403 176.491 L 135.395 176.491 Z M 136.399 182.541 L 132.978 179.499 L 133.018 179.45 L 139.781 179.45 L 139.822 179.5 L 136.399 182.541 Z M 141.638 187.198 L 137.86 183.839 L 140.863 181.169 L 141.638 187.198 Z M 131.157 187.198 L 131.934 181.169 L 134.938 183.841 L 131.157 187.198 Z M 136.397 192.665 L 131.635 189.371 L 136.397 185.138 L 141.162 189.371 L 136.397 192.665 Z M 129.877 197.172 L 130.662 191.068 L 134.684 193.849 L 129.877 197.172 Z M 142.92 197.175 L 138.115 193.85 L 142.137 191.07 L 142.92 197.175 Z M 136.397 202.682 L 130.313 199.241 L 136.397 195.034 L 142.481 199.241 L 136.397 202.682 Z M 128.603 207.094 L 129.391 200.962 L 134.415 203.805 L 128.603 207.094 Z M 144.195 207.093 L 138.384 203.805 L 143.407 200.964 L 144.195 207.093 Z M 131.14 207.903 L 136.4 204.926 L 141.662 207.903 L 131.14 207.903 Z" fill="black"/>
      <path d="M 93.508 168.954 C 92.643 168.954 91.699 168.885 90.702 168.749 C 88.554 168.456 86.504 168.308 84.61 168.308 C 83.98 168.308 83.378 168.324 82.801 168.355 C 84.625 167.814 86.833 167.468 89.496 167.468 C 90.723 167.468 92.021 167.542 93.354 167.691 C 93.427 167.699 93.501 167.703 93.575 167.703 C 93.622 167.703 93.67 167.702 93.718 167.699 C 96.253 167.517 98.221 167.14 99.748 166.658 C 99.686 166.737 99.62 166.815 99.551 166.891 C 98.316 168.26 96.283 168.954 93.508 168.954 Z" fill="black"/>
      <path d="M 103.001 161.931 C 102.374 165.074 93.575 165.702 93.575 165.702 C 92.12 165.54 90.762 165.467 89.496 165.467 C 75.984 165.467 72.833 173.874 72.833 173.874 C 72.833 173.874 75.508 170.308 84.61 170.308 C 86.317 170.308 88.248 170.433 90.432 170.731 C 91.554 170.884 92.576 170.955 93.508 170.955 C 104.063 170.954 103.001 161.931 103.001 161.931 Z" fill="black"/>
    </g>
  </g>
</svg>
